<svg width="23" height="22" viewBox="0 0 23 22" fill="none" xmlns="http://www.w3.org/2000/svg">
<path d="M11.8644 18.5809H3.13783V4.1985H0.980469V18.5809C0.980469 19.1259 1.20776 19.6485 1.61235 20.0338C2.01693 20.4191 2.56566 20.6356 3.13783 20.6356H12.641C12.2443 20.0053 11.9805 19.3074 11.8644 18.5809ZM18.2394 0.0892334H12.846V5.22582L10.6886 3.68484L8.53125 5.22582V0.0892334H7.45256C6.88039 0.0892334 6.33166 0.305703 5.92708 0.691021C5.52249 1.07634 5.2952 1.59894 5.2952 2.14387V14.4717C5.2952 15.0166 5.52249 15.5392 5.92708 15.9245C6.33166 16.3098 6.88039 16.5263 7.45256 16.5263H11.8644C12.0215 15.6404 12.38 14.7979 12.9149 14.0578C13.4498 13.3177 14.1481 12.6979 14.9609 12.2418C15.7738 11.7858 16.6815 11.5045 17.6204 11.4176C18.5594 11.3308 19.507 11.4404 20.3967 11.739V2.14387C20.3967 1.59894 20.1695 1.07634 19.7649 0.691021C19.3603 0.305703 18.8116 0.0892334 18.2394 0.0892334ZM19.3181 13.4443V16.5263H22.5541V18.5809H19.3181V21.6629H17.1607V18.5809H13.9247V16.5263H17.1607V13.4443H19.3181Z" fill="white"/>
</svg>
