<svg width="17" height="20" viewBox="0 0 17 20" fill="none" xmlns="http://www.w3.org/2000/svg">
<path d="M14.3157 8.69261V2.57892C14.3157 1.65261 13.5663 0.894714 12.6315 0.894714H2.52625C1.59151 0.894714 0.842041 1.65261 0.842041 2.57892V16.0526C0.842041 16.9873 1.59151 17.7368 2.52625 17.7368H6.82941C7.89046 18.781 9.33888 19.421 10.9473 19.421C14.2063 19.421 16.842 16.7852 16.842 13.5263C16.842 11.5221 15.8399 9.76208 14.3157 8.69261ZM12.6315 2.57892V7.87577C12.101 7.72419 11.5368 7.63156 10.9473 7.63156C10.0463 7.63156 9.1873 7.84208 8.42099 8.20419V2.57892H12.6315ZM2.52625 2.57892H4.21046V9.31577L6.31573 7.42103L7.66309 8.63366C6.08836 9.69471 5.05257 11.4884 5.05257 13.5263C5.05257 14.4358 5.26309 15.2863 5.6252 16.0526H2.52625V2.57892ZM10.9473 17.7368C8.62309 17.7368 6.73678 15.8505 6.73678 13.5263C6.73678 11.2021 8.62309 9.31577 10.9473 9.31577C13.2715 9.31577 15.1578 11.2021 15.1578 13.5263C15.1578 15.8505 13.2715 17.7368 10.9473 17.7368ZM11.3684 13.7368L13.7768 15.16L13.1452 16.1873L10.1052 14.3684V10.1579H11.3684V13.7368Z" fill="#26508C"/>
</svg>
