<svg width="23" height="20" viewBox="0 0 23 20" fill="none" xmlns="http://www.w3.org/2000/svg">
<path d="M18.4553 8.81867L8.92884 17.0461V19.8605H3.25156C1.99121 19.8605 0.980652 18.9877 0.980652 17.8992V2.20929C0.980652 1.13061 1.99121 0.248047 3.25156 0.248047H4.38702V7.11239L7.22565 5.64146L10.0643 7.11239V0.248047H16.877C18.126 0.248047 19.1479 1.1208 19.1479 2.20929V8.38719C18.8981 8.50487 18.6597 8.64216 18.4553 8.81867ZM11.1997 17.86V19.8605H13.5161L20.4764 13.8591L18.1601 11.8488L11.1997 17.86ZM22.384 11.4958L20.8852 10.2013C20.6581 10.0052 20.2834 10.0052 20.0676 10.2013L18.9549 11.1623L21.2712 13.1628L22.384 12.2018C22.6111 12.0155 22.6111 11.6919 22.384 11.4958Z" fill="white"/>
</svg>
