<svg width="16" height="20" viewBox="0 0 16 20" fill="none" xmlns="http://www.w3.org/2000/svg">
<path d="M10.5263 13.7368L12.9347 15.16L12.3032 16.1873L9.26316 14.3684V10.1579H10.5263V13.7368ZM16 13.5263C16 16.7852 13.3642 19.421 10.1053 19.421C8.49684 19.421 7.04842 18.781 5.98737 17.7368H1.68421C0.749474 17.7368 0 16.9873 0 16.0526V2.57892C0 1.65261 0.749474 0.894714 1.68421 0.894714H2.52632V6.78945L4.63158 5.52629L6.73684 6.78945V0.894714H11.7895C12.7158 0.894714 13.4737 1.64419 13.4737 2.57892V8.69261C14.9979 9.76208 16 11.5221 16 13.5263ZM14.3158 13.5263C14.3158 11.2021 12.4295 9.31577 10.1053 9.31577C7.78105 9.31577 5.89474 11.2021 5.89474 13.5263C5.89474 15.8505 7.78105 17.7368 10.1053 17.7368C12.4295 17.7368 14.3158 15.8505 14.3158 13.5263Z" fill="#26508C"/>
</svg>
