<svg width="23" height="24" viewBox="0 0 23 24" fill="none" xmlns="http://www.w3.org/2000/svg">
<path d="M19.4723 2.53492H14.8494V5.74422H8.68552V2.53492H4.0626C3.24522 2.53492 2.46131 2.76034 1.88333 3.16158C1.30536 3.56282 0.980652 4.10702 0.980652 4.67446V21.7907C0.980652 22.3582 1.30536 22.9024 1.88333 23.3036C2.46131 23.7049 3.24522 23.9303 4.0626 23.9303H19.4723C20.2897 23.9303 21.0736 23.7049 21.6516 23.3036C22.2296 22.9024 22.5543 22.3582 22.5543 21.7907V4.67446C22.5543 4.10702 22.2296 3.56282 21.6516 3.16158C21.0736 2.76034 20.2897 2.53492 19.4723 2.53492ZM11.7675 7.88376C12.5849 7.88376 13.3688 8.10917 13.9467 8.51041C14.5247 8.91165 14.8494 9.45585 14.8494 10.0233C14.8494 10.5907 14.5247 11.1349 13.9467 11.5362C13.3688 11.9374 12.5849 12.1628 11.7675 12.1628C10.9501 12.1628 10.1662 11.9374 9.58821 11.5362C9.01023 11.1349 8.68552 10.5907 8.68552 10.0233C8.68552 9.45585 9.01023 8.91165 9.58821 8.51041C10.1662 8.10917 10.9501 7.88376 11.7675 7.88376ZM17.9314 16.4419H5.60358V15.3721C5.60358 13.9493 9.71798 13.2326 11.7675 13.2326C13.817 13.2326 17.9314 13.9493 17.9314 15.3721V16.4419ZM13.3084 4.67446H10.2265V0.395386H13.3084V4.67446ZM17.9314 19.6512H5.60358V18.5814H17.9314V19.6512ZM11.7675 21.7907H5.60358V20.721H11.7675V21.7907Z" fill="white"/>
</svg>
