<svg width="17" height="19" viewBox="0 0 17 19" fill="none" xmlns="http://www.w3.org/2000/svg">
<path d="M12.8948 18.3579L12.3895 17.9368C10.7053 16.3368 9.52634 15.3263 9.52634 14.0631C9.52634 13.0526 10.3684 12.2105 11.379 12.2105C11.9684 12.2105 12.5579 12.4631 12.8948 12.8842C13.2316 12.4631 13.8211 12.2105 14.4106 12.2105C15.4211 12.2105 16.2632 12.9684 16.2632 14.0631C16.2632 15.3263 15.0842 16.3368 13.4 17.9368L12.8948 18.3579ZM1.94739 17.2631C1.01266 17.2631 0.263184 16.5052 0.263184 15.5789V2.10523C0.263184 1.17049 1.01266 0.421021 1.94739 0.421021H2.7895V6.31576L4.89476 5.0526L7.00003 6.31576V0.421021H12.0527C12.979 0.421021 13.7369 1.17049 13.7369 2.10523V9.75155L12.8948 9.68418C10.1074 9.68418 7.84213 11.9494 7.84213 14.7368C7.84213 15.6547 8.08634 16.5221 8.51582 17.2631H1.94739Z" fill="#26508C"/>
</svg>
