<svg width="28" height="18" viewBox="0 0 28 18" fill="none" xmlns="http://www.w3.org/2000/svg">
<path d="M14 5.4C12.9874 5.4 12.0162 5.77928 11.3001 6.45442C10.5841 7.12955 10.1818 8.04522 10.1818 9C10.1818 9.95478 10.5841 10.8705 11.3001 11.5456C12.0162 12.2207 12.9874 12.6 14 12.6C15.0126 12.6 15.9838 12.2207 16.6999 11.5456C17.4159 10.8705 17.8182 9.95478 17.8182 9C17.8182 8.04522 17.4159 7.12955 16.6999 6.45442C15.9838 5.77928 15.0126 5.4 14 5.4ZM14 15C12.3123 15 10.6936 14.3679 9.50023 13.2426C8.30682 12.1174 7.63636 10.5913 7.63636 9C7.63636 7.4087 8.30682 5.88258 9.50023 4.75736C10.6936 3.63214 12.3123 3 14 3C15.6877 3 17.3064 3.63214 18.4998 4.75736C19.6932 5.88258 20.3636 7.4087 20.3636 9C20.3636 10.5913 19.6932 12.1174 18.4998 13.2426C17.3064 14.3679 15.6877 15 14 15ZM14 0C7.63636 0 2.20182 3.732 0 9C2.20182 14.268 7.63636 18 14 18C20.3636 18 25.7982 14.268 28 9C25.7982 3.732 20.3636 0 14 0Z" fill="black" fill-opacity="0.54"/>
</svg>



