<svg width="23" height="18" viewBox="0 0 23 18" fill="none" xmlns="http://www.w3.org/2000/svg">
<path d="M11.2771 0.406982C12.1495 0.406982 12.9861 0.843919 13.6029 1.62167C14.2198 2.39942 14.5663 3.45428 14.5663 4.55419C14.5663 5.6541 14.2198 6.70895 13.6029 7.48671C12.9861 8.26446 12.1495 8.70139 11.2771 8.70139C10.4048 8.70139 9.56818 8.26446 8.95134 7.48671C8.3345 6.70895 7.98797 5.6541 7.98797 4.55419C7.98797 3.45428 8.3345 2.39942 8.95134 1.62167C9.56818 0.843919 10.4048 0.406982 11.2771 0.406982ZM4.6988 3.36927C5.22507 3.36927 5.71375 3.54701 6.13664 3.86694C5.99568 5.56137 6.39037 7.24395 7.19857 8.5592C6.72869 9.69672 5.78893 10.4788 4.6988 10.4788C3.95108 10.4788 3.23399 10.1043 2.70527 9.43761C2.17655 8.77096 1.87952 7.8668 1.87952 6.92402C1.87952 5.98124 2.17655 5.07708 2.70527 4.41043C3.23399 3.74379 3.95108 3.36927 4.6988 3.36927ZM17.8555 3.36927C18.6032 3.36927 19.3203 3.74379 19.849 4.41043C20.3777 5.07708 20.6747 5.98124 20.6747 6.92402C20.6747 7.8668 20.3777 8.77096 19.849 9.43761C19.3203 10.1043 18.6032 10.4788 17.8555 10.4788C16.7653 10.4788 15.8256 9.69672 15.3557 8.5592C16.1639 7.24395 16.5586 5.56137 16.4176 3.86694C16.8405 3.54701 17.3292 3.36927 17.8555 3.36927ZM5.16869 15.5147C5.16869 13.0619 7.90339 11.0712 11.2771 11.0712C14.6509 11.0712 17.3856 13.0619 17.3856 15.5147V17.5883H5.16869V15.5147ZM0 17.5883V15.8109C0 14.1639 1.77615 12.7775 4.18194 12.3746C3.62748 13.1804 3.28916 14.2942 3.28916 15.5147V17.5883H0ZM22.5543 17.5883H19.2651V15.5147C19.2651 14.2942 18.9268 13.1804 18.3723 12.3746C20.7781 12.7775 22.5543 14.1639 22.5543 15.8109V17.5883Z" fill="white"/>
</svg>
